<?xml version="1.0" standalone="no"?>
<!DOCTYPE svg PUBLIC "-//W3C//DTD SVG 20010904//EN"
 "http://www.w3.org/TR/2001/REC-SVG-20010904/DTD/svg10.dtd">
<svg version="1.0" xmlns="http://www.w3.org/2000/svg"
 width="350.000000pt" height="280.000000pt" viewBox="0 0 350.000000 280.000000"
 preserveAspectRatio="xMidYMid meet">

<g transform="translate(0.000000,280.000000) scale(0.100000,-0.100000)"
fill="#000000" stroke="none">
<path d="M1525 2739 c-44 -16 -119 -43 -167 -59 -82 -27 -133 -49 -115 -50 5
0 17 5 28 10 30 16 23 2 -25 -54 l-44 -52 30 2 c17 1 35 7 42 14 8 8 6 9 -8 4
-33 -13 -13 19 33 51 32 22 44 26 50 17 6 -10 17 -10 52 2 24 9 57 16 73 16
28 0 28 1 13 18 -25 28 -21 50 12 57 38 8 81 -4 81 -22 0 -21 84 -8 121 17 23
17 36 18 125 11 54 -5 104 -10 109 -11 6 -2 23 2 38 8 39 16 108 14 131 -3 12
-9 41 -15 71 -15 55 0 92 -18 83 -41 -4 -10 11 -21 48 -35 30 -12 54 -18 54
-14 0 4 12 6 28 4 27 -4 27 -4 -3 7 -16 6 -46 24 -65 39 -54 41 -74 50 -147
60 -38 5 -108 17 -158 25 -49 9 -162 18 -250 20 l-160 5 -80 -31z"/>
<path d="M1160 2591 c-103 -57 -179 -114 -255 -191 -66 -68 -69 -72 -51 -86
11 -8 25 -14 30 -14 6 0 5 4 -3 9 -11 7 -7 13 16 25 17 8 33 25 36 37 4 14 11
20 21 16 8 -3 17 1 20 9 3 8 14 14 25 14 18 0 91 71 91 90 0 5 10 14 21 21 17
8 23 8 30 -2 5 -9 13 -4 26 20 10 19 29 46 41 62 13 16 22 28 20 28 -1 -1 -32
-18 -68 -38z"/>
<path d="M2425 2610 c-3 -5 1 -10 10 -10 9 0 27 -12 42 -26 14 -14 28 -22 32
-19 7 7 -54 65 -69 65 -5 0 -12 -4 -15 -10z"/>
<path d="M2530 2556 c0 -2 7 -7 16 -10 8 -3 12 -2 9 4 -6 10 -25 14 -25 6z"/>
<path d="M1297 2503 c-9 -8 -9 -625 -1 -647 5 -14 28 -16 149 -16 l142 0 -15
-57 c-8 -32 -19 -61 -26 -65 -8 -6 -8 -12 0 -25 10 -16 30 -18 150 -21 76 -1
149 0 162 3 27 7 28 28 2 63 -11 15 -23 44 -27 65 l-6 37 152 0 c148 0 151 0
156 23 3 12 4 162 3 332 l-3 310 -416 3 c-228 1 -418 -1 -422 -5z m786 -37
c16 -4 17 -24 17 -251 0 -151 -4 -254 -10 -266 -10 -18 -25 -19 -373 -19 -269
0 -366 3 -375 12 -9 9 -12 81 -12 265 0 208 2 253 14 260 15 8 706 7 739 -1z
m-347 -585 c-4 -6 -16 -11 -27 -11 -21 0 -27 35 -6 43 16 6 41 -18 33 -32z"/>
<path d="M1765 2323 c-69 -14 -65 -10 -65 -63 l0 -50 70 0 70 0 0 60 c0 59 0
60 -27 59 -16 -1 -37 -3 -48 -6z"/>
<path d="M1618 2302 l-48 -3 0 -45 0 -44 53 0 53 0 -4 38 c-2 20 -4 42 -5 47
-1 6 -23 9 -49 7z"/>
<path d="M1570 2145 c0 -29 4 -45 13 -45 6 0 29 -3 50 -6 l37 -7 0 52 0 51
-50 0 -50 0 0 -45z"/>
<path d="M1700 2136 l0 -53 70 -10 70 -9 0 63 0 63 -70 0 -70 0 0 -54z"/>
<path d="M2206 2494 c-3 -9 -6 -190 -6 -404 0 -319 2 -390 14 -399 9 -8 56
-11 142 -9 l129 3 3 413 2 412 -139 0 c-117 0 -140 -2 -145 -16z m254 -54 l0
-30 -105 0 -105 0 0 30 0 30 105 0 105 0 0 -30z m0 -105 l0 -35 -105 0 -105 0
0 35 0 35 105 0 105 0 0 -35z m-2 -344 l-3 -266 -100 0 -100 0 -3 267 -2 267
92 3 c51 2 99 1 106 -1 10 -2 12 -61 10 -270z"/>
<path d="M2290 2045 c0 -8 7 -15 15 -15 8 0 15 7 15 15 0 8 -7 15 -15 15 -8 0
-15 -7 -15 -15z"/>
<path d="M2635 2438 c11 -6 27 -17 37 -25 12 -11 18 -11 24 -2 4 7 3 10 -3 6
-6 -4 -18 2 -28 13 -10 11 -25 20 -34 20 -12 -1 -11 -3 4 -12z"/>
<path d="M2775 2350 c3 -5 8 -10 11 -10 2 0 4 5 4 10 0 6 -5 10 -11 10 -5 0
-7 -4 -4 -10z"/>
<path d="M796 2289 c-14 -17 -26 -34 -26 -38 0 -4 -20 -29 -45 -56 -72 -80
-170 -256 -235 -422 -15 -41 -5 -94 17 -86 13 5 15 1 9 -20 -10 -41 3 -32 24
16 12 26 20 66 21 107 1 89 10 115 37 114 15 0 22 5 22 17 0 24 52 123 95 179
19 25 44 64 56 87 12 23 25 40 29 38 3 -2 11 18 16 46 6 27 9 49 8 49 -1 0
-14 -14 -28 -31z"/>
<path d="M835 2260 c-3 -5 -1 -10 4 -10 6 0 11 5 11 10 0 6 -2 10 -4 10 -3 0
-8 -4 -11 -10z"/>
<path d="M471 1604 c-15 -68 -10 -283 9 -428 7 -50 10 -105 7 -123 -3 -18 -1
-35 4 -38 5 -4 9 -17 9 -30 0 -30 109 -250 156 -313 18 -26 53 -74 76 -107 51
-71 185 -205 248 -248 25 -17 63 -46 85 -64 21 -19 91 -60 155 -92 112 -57
184 -79 195 -60 10 15 40 10 63 -10 63 -54 394 -76 572 -38 145 32 360 115
427 166 28 22 72 48 97 60 69 30 289 223 302 264 4 12 15 28 25 36 10 9 29 35
41 57 13 23 44 79 70 125 52 94 138 340 143 409 2 25 6 71 10 103 3 31 2 57
-2 57 -25 -1 -52 -76 -68 -190 -3 -24 -10 -49 -14 -55 -4 -5 -13 -31 -20 -57
-6 -26 -23 -68 -37 -94 -14 -25 -23 -52 -20 -59 3 -8 1 -17 -4 -20 -5 -3 -19
-27 -30 -53 -12 -26 -29 -56 -39 -67 -10 -11 -24 -35 -31 -52 -7 -19 -20 -33
-29 -33 -9 0 -26 -19 -39 -43 -12 -23 -54 -75 -93 -116 -38 -40 -75 -81 -82
-91 -7 -9 -32 -31 -57 -48 -25 -17 -54 -40 -64 -51 -11 -12 -29 -21 -42 -21
-12 0 -31 -10 -41 -23 -26 -32 -72 -59 -89 -53 -19 7 -72 -19 -101 -50 -19
-21 -32 -24 -89 -24 -52 0 -80 -6 -123 -27 -58 -27 -108 -34 -119 -16 -8 12
-112 22 -112 11 0 -11 -48 -10 -69 2 -10 5 -72 12 -137 14 -88 4 -121 9 -129
19 -6 9 -33 18 -60 22 -69 9 -85 15 -82 27 1 6 -7 12 -18 14 -25 4 -94 33 -81
34 13 0 -58 46 -122 80 -32 16 -85 55 -119 87 -35 32 -63 55 -63 50 0 -4 -10
-1 -22 8 -13 8 -23 19 -23 23 0 5 -17 23 -38 42 -22 19 -34 36 -28 40 6 3 -16
33 -52 71 -61 63 -80 90 -112 158 -9 18 -27 45 -41 59 -26 28 -30 42 -14 42 6
0 10 -5 10 -12 0 -6 3 -9 6 -6 3 4 -1 17 -10 30 -15 23 -57 143 -54 156 1 4
-1 14 -4 22 -5 14 -30 132 -46 220 -3 19 -6 58 -5 85 3 167 2 206 -10 240
l-14 39 -12 -60z"/>
<path d="M880 1605 c0 -30 -4 -55 -10 -55 -5 0 -10 10 -10 23 l-1 22 -18 -22
c-11 -13 -28 -23 -40 -23 -32 0 -41 -31 -41 -145 0 -126 7 -145 55 -145 33 0
35 2 35 35 0 20 7 47 16 60 16 24 19 25 149 25 152 0 165 -6 165 -78 0 -41 1
-42 33 -42 53 0 57 11 57 152 l0 129 -31 6 c-17 3 -36 14 -42 24 -15 25 -27
24 -27 -2 0 -11 -4 -17 -10 -14 -5 3 -10 28 -10 56 l0 49 -135 0 -135 0 0 -55z
m255 -15 c3 -11 3 -24 0 -30 -4 -6 -54 -10 -121 -10 l-114 0 0 30 0 30 114 0
c106 0 115 -2 121 -20z m95 -80 c0 -5 -7 -10 -15 -10 -8 0 -15 5 -15 10 0 6 7
10 15 10 8 0 15 -4 15 -10z"/>
<path d="M2274 1550 l-29 -5 -3 -180 c-2 -170 -2 -181 18 -196 19 -17 18 -18
-53 -88 -113 -110 -126 -106 319 -106 436 0 421 -6 305 109 l-70 69 25 19 c24
19 24 21 24 186 0 92 -4 173 -9 181 -8 12 -53 15 -253 15 -134 1 -257 -1 -274
-4z m494 -35 c14 -5 18 -291 4 -313 -7 -9 -64 -12 -253 -10 l-244 3 0 160 0
160 35 5 c41 6 439 2 458 -5z m-9 -399 c12 -11 21 -23 21 -28 0 -4 -118 -8
-262 -8 l-262 0 27 28 26 27 215 0 c196 -1 216 -2 235 -19z m-153 -73 c7 -10
14 -21 14 -25 0 -5 -43 -8 -95 -8 -52 0 -95 3 -95 6 0 3 5 14 10 25 9 16 22
19 82 19 56 0 74 -4 84 -17z"/>
<path d="M887 1339 c-4 -9 -7 -54 -5 -100 l3 -84 125 -3 c109 -2 126 0 137 15
17 23 17 157 1 171 -10 8 -13 0 -12 -34 0 -24 -2 -48 -6 -54 -4 -7 -46 -10
-116 -8 l-109 3 -5 55 c-4 35 -9 49 -13 39z"/>
<path d="M925 1330 c3 -5 46 -10 96 -10 53 0 89 4 89 10 0 6 -39 10 -96 10
-61 0 -93 -4 -89 -10z"/>
<path d="M920 1303 c0 -5 43 -9 95 -10 54 -1 95 2 95 8 0 5 -42 9 -95 9 -52 0
-95 -3 -95 -7z"/>
<path d="M948 1273 c17 -2 47 -2 65 0 17 2 3 4 -33 4 -36 0 -50 -2 -32 -4z"/>
<path d="M1501 1113 l-22 -18 1 -329 c0 -290 2 -332 17 -348 15 -16 37 -18
245 -18 l228 0 11 27 c12 32 8 677 -4 690 -5 4 -109 9 -231 11 -203 3 -224 2
-245 -15z m437 -71 c-7 -9 -30 -41 -51 -70 -22 -28 -43 -52 -47 -52 -5 0 -15
-11 -22 -24 -19 -35 -159 -216 -185 -239 -13 -12 -23 -25 -23 -30 0 -6 -9 -19
-20 -31 -12 -12 -32 -34 -45 -51 l-24 -30 -1 275 0 275 215 -3 c202 -3 215 -4
203 -20z"/>
</g>
</svg>
